<?xml version="1.0" encoding="utf-8"?>
<!-- Generator: Adobe Illustrator 19.1.0, SVG Export Plug-In . SVG Version: 6.00 Build 0)  -->
<svg version="1.1" id="Layer_1" xmlns="http://www.w3.org/2000/svg" xmlns:xlink="http://www.w3.org/1999/xlink" x="0px" y="0px"
	 viewBox="0 0 730 125" style="enable-background:new 0 0 730 125;" xml:space="preserve">
<g>
	<g>
		<path style="fill:#FFFFFF;" d="M143.7,63.3c0-32.9,25.5-57.1,57.5-57.1c31.9,0,57.5,24.2,57.5,57.1c0,32.9-25.5,57.1-57.5,57.1
			C169.3,120.4,143.7,96.2,143.7,63.3z M240.5,63.3c0-23.6-16.2-41.3-39.3-41.3c-23.1,0-39.3,17.7-39.3,41.3
			c0,23.6,16.2,41.2,39.3,41.2C224.3,104.5,240.5,86.8,240.5,63.3z"/>
		<path style="fill:#FFFFFF;" d="M268.8,63.3c0-32.9,25.5-57.1,57.5-57.1c31.9,0,57.5,24.2,57.5,57.1c0,32.9-25.5,57.1-57.5,57.1
			C294.3,120.4,268.8,96.2,268.8,63.3z M365.5,63.3c0-23.6-16.2-41.3-39.3-41.3C303.2,22,287,39.7,287,63.3
			c0,23.6,16.2,41.2,39.3,41.2C349.3,104.5,365.5,86.8,365.5,63.3z"/>
		<path style="fill:#FFFFFF;" d="M374.2,7.6h19.3l31.6,58.1l31.1-58.1h18.3l-40.9,75.8v35.5h-17.5V83.5L374.2,7.6z"/>
		<path style="fill:#FFFFFF;" d="M462.9,118.9h-17.7L494,5.3h1L544,118.9h-18.5l-6.4-15.6h-49.8L462.9,118.9z M494.4,43.8l-18.5,44
			h36.7L494.4,43.8z"/>
		<path style="fill:#FFFFFF;" d="M553,7.6h17.5v95.8h49.8l-6.7,15.6H553V7.6z M644,118.9h-17.7L675.1,5.3h1L725,118.9h-18.5
			l-6.4-15.6h-49.8L644,118.9z M675.4,43.8l-18.5,44h36.7L675.4,43.8z"/>
		<g>
			<path style="fill:#FFFFFF;" d="M719.4,22.7c-2.1,2.1-4.6,3.1-7.5,3.1c-2.9,0-5.4-1-7.5-3.1c-2-2.1-3.1-4.6-3.1-7.5
				c0-2.9,1-5.4,3.1-7.5c2.1-2.1,4.5-3.1,7.5-3.1c2.9,0,5.4,1,7.5,3.1c2.1,2.1,3.1,4.5,3.1,7.5C722.5,18.1,721.4,20.6,719.4,22.7z
				 M705.5,8.7c-1.8,1.8-2.7,3.9-2.7,6.4c0,2.5,0.9,4.7,2.6,6.5c1.8,1.8,3.9,2.7,6.4,2.7c2.5,0,4.7-0.9,6.4-2.7
				c1.8-1.8,2.7-4,2.7-6.5c0-2.5-0.9-4.7-2.7-6.4c-1.8-1.8-3.9-2.7-6.4-2.7C709.4,6.1,707.2,7,705.5,8.7z M711.7,9.3
				c1.4,0,2.5,0.1,3.2,0.4c1.2,0.5,1.8,1.5,1.8,2.9c0,1-0.4,1.8-1.1,2.3c-0.4,0.3-1,0.4-1.7,0.6c0.9,0.1,1.6,0.5,2,1.1
				c0.4,0.6,0.6,1.2,0.6,1.8v0.9c0,0.3,0,0.6,0,0.9c0,0.3,0.1,0.5,0.1,0.6l0.1,0.1h-1.9c0,0,0-0.1,0-0.1c0,0,0-0.1,0-0.1l0-0.4v-0.9
				c0-1.3-0.4-2.2-1.1-2.7c-0.4-0.2-1.2-0.4-2.3-0.4h-1.6V21h-2V9.3H711.7z M713.9,11.2c-0.5-0.3-1.3-0.4-2.5-0.4h-1.7v4.2h1.8
				c0.9,0,1.5-0.1,2-0.3c0.8-0.3,1.2-0.9,1.2-1.8C714.7,12,714.4,11.5,713.9,11.2z"/>
		</g>
	</g>
	<circle style="fill:#F1B431;" cx="63" cy="24.7" r="18.3"/>
	<path style="fill:#971B30;" d="M41.6,53.3c0,10.1-8.2,18.3-18.3,18.3C13.2,71.6,5,63.4,5,53.3C5,43.2,13.2,35,23.3,35
		C33.4,35,41.6,43.2,41.6,53.3z"/>
	<path style="fill:#9C5FA7;" d="M56.6,100.3c0,10.1-8.2,18.3-18.3,18.3c-10.1,0-18.3-8.2-18.3-18.3S28.2,82,38.3,82
		C48.4,82,56.6,90.2,56.6,100.3z"/>
	<circle style="fill:#7A9B3D;" cx="87.7" cy="100.3" r="18.3"/>
	<circle style="fill:#6FCDDF;" cx="102.7" cy="53.3" r="18.3"/>
</g>
</svg>
